<svg width="146" height="26" viewBox="0 0 146 26" fill="none" xmlns="http://www.w3.org/2000/svg">
<path d="M13.5 0L16.6705 9.95398L27 9.93112L18.63 16.0602L21.8435 26L13.5 19.834L5.15654 26L8.37 16.0602L0 9.93112L10.3295 9.95398L13.5 0Z" fill="#FF9900"/>
<path d="M43.5 0L46.6705 9.95398L57 9.93112L48.63 16.0602L51.8435 26L43.5 19.834L35.1565 26L38.37 16.0602L30 9.93112L40.3295 9.95398L43.5 0Z" fill="#FF9900"/>
<path d="M73 0L76.2879 9.95398L87 9.93112L78.32 16.0602L81.6525 26L73 19.834L64.3475 26L67.68 16.0602L59 9.93112L69.7121 9.95398L73 0Z" fill="#FF9900"/>
<path fill-rule="evenodd" clip-rule="evenodd" d="M135.671 9.95398L132.5 0L129.329 9.95398L119 9.93112L127.37 16.0602L124.157 26L132.5 19.834L140.843 26L137.63 16.0602L146 9.93112L135.671 9.95398ZM140.337 11.8008L134.368 11.814L132.5 5.94852L130.632 11.814L124.663 11.8008L129.5 15.3422L127.62 21.156L132.5 17.5496L137.38 21.156L135.5 15.3422L140.337 11.8008Z" fill="#DDDDDD"/>
<path fill-rule="evenodd" clip-rule="evenodd" d="M105.671 9.95398L102.5 0L99.3295 9.95398L89 9.93112L97.37 16.0602L94.1565 26L102.5 19.834L110.843 26L107.63 16.0602L116 9.93112L105.671 9.95398ZM110.337 11.8008L104.368 11.814L102.5 5.94852L100.632 11.814L94.6633 11.8008L99.4996 15.3422L97.6201 21.156L102.5 17.5496L107.38 21.156L105.5 15.3422L110.337 11.8008Z" fill="#DDDDDD"/>
</svg>
